<svg id="visual" viewBox="0 0 900 600" width="900" height="600" xmlns="http://www.w3.org/2000/svg" xmlns:xlink="http://www.w3.org/1999/xlink" version="1.1"><rect width="900" height="600" fill="#001122"></rect><g><g transform="translate(211 394)"><path d="M105.1 -29.5C119 8.8 101.3 61.9 65.2 87.6C29.1 113.4 -25.4 111.7 -61.9 85.1C-98.5 58.6 -117.1 7.3 -103.7 -30.1C-90.4 -67.6 -45.2 -91 0.2 -91.1C45.6 -91.2 91.1 -67.8 105.1 -29.5Z" fill="#4FACF7"></path></g><g transform="translate(219 50)"><path d="M75.1 -25.8C84.7 5.3 71.3 42.5 46.8 59C22.2 75.6 -13.4 71.5 -39.9 52.8C-66.4 34 -83.8 0.6 -75.7 -28.5C-67.5 -57.5 -33.7 -82.1 -0.5 -81.9C32.7 -81.7 65.4 -56.8 75.1 -25.8Z" fill="#4FACF7"></path></g><g transform="translate(609 129)"><path d="M88.9 -25.1C101.1 8.6 87.1 54.5 55.3 78.1C23.5 101.7 -26 102.8 -55.5 80.5C-85 58.1 -94.5 12.2 -81.9 -22.1C-69.3 -56.3 -34.6 -78.8 1.9 -79.4C38.4 -80 76.7 -58.7 88.9 -25.1Z" fill="#4FACF7"></path></g><g transform="translate(861 582)"><path d="M66.5 -23.7C75.3 5.4 64 38.9 41.4 54.7C18.9 70.5 -14.8 68.6 -39.4 51.4C-64 34.2 -79.5 1.7 -71.4 -26.4C-63.3 -54.5 -31.7 -78.2 -1.4 -77.8C28.9 -77.3 57.8 -52.7 66.5 -23.7Z" fill="#4FACF7"></path></g></g></svg>